<?xml version="1.0" encoding="UTF-8"?>
<svg id="Layer_1" data-name="Layer 1" xmlns="http://www.w3.org/2000/svg" viewBox="0 0 800 600">
  <defs>
    <style>
      .cls-1 {
        fill: #fab600;
      }

      .cls-1, .cls-2, .cls-3, .cls-4, .cls-5, .cls-6 {
        stroke-width: 0px;
      }

      .cls-2 {
        fill: #52287a;
      }

      .cls-3 {
        fill: #00a2e8;
      }

      .cls-4 {
        fill: #e73a2a;
      }

      .cls-5 {
        fill: #005dc1;
      }

      .cls-6 {
        fill: #008758;
      }
    </style>
  </defs>
  <path class="cls-3" d="M382.2,53.7L70.8,289c-13.4,10.1-16.3,29-6.5,42.7h0c10,14.1,29.7,17.2,43.6,6.9l276.8-204.9c11.1-8.2,26.3-8.1,37.3.3l270.3,208c13.4,10.3,32.6,7.9,43.1-5.3l1.5-1.9c10.6-13.4,8.3-32.9-5.1-43.5l-109.7-86.2v-87.2s37.7-20.2-5.9-41h-95s-33.8,16.3-4.6,37.7v11.7l-97.2-72.6c-11-8.2-26.2-8.2-37.2,0Z"/>
  <g>
    <path class="cls-4" d="M214.3,494.9s1,41.2,1.8,58.1h16.1c-1.9-14.7-7.2-47.9-18-58.1Z"/>
    <path class="cls-4" d="M303.2,224.3l-179.8,135.7c-2.7,2.1-4.4,5.4-4.4,8.9v172.9c0,6.2,5,11.2,11.2,11.2h72.1c-1-15.3-3.6-50.9-4.9-56.4,0,0-2.2,11.3-18.9,9.1-3.7-.5-6.5-3.7-6.3-7.5.3-5.3,1.7-14.9,6.4-32.4,0,0,14.2-63.4,14.6-71.3,0,0-9.5,15.6-13.2,26.1-3.7,10.5-19.5,30.5-19.5,30.5,0,0-15.4,4.1,1.7-19.5,11.1-15.3,15-31.5,16.3-41,1.3-9,5.4-17.5,12-23.7,3.8-3.5,8.4-6.4,13.6-7,0,0,3.3-4.2-2.6-8.1,0,0-13.7-6.1-5.5-23.9,0,0,7.8-11.7,21.2-8.3,0,0,24.9,10.5,9.8,29.3,0,0-2.9,2.4-3.4,4.1,0,0-2.4,4.6.2,5.9,0,0,16.1,1.2,23.2,32.5,0,0,11.5,37.6,17.1,45.9,0,0,8.1,8.8.7,9.5-7.3.7-27.8-46.9-29.8-56.4,0,0-2.9,33.9,4.4,77.6,0,0,13.9,35.6-1.5,35.1,0,0,4.2,34.1,7.7,49.8h45.4c6.2,0,11.2-5,11.2-11.2-.2-57.8-.8-318.9.7-317.4Z"/>
  </g>
  <g>
    <path class="cls-1" d="M325,242.9c11.7-1.3,7.4-9.9,7.4-9.9-5-13.1-3.5-22.4.5-29.1l-6,4.6c-2.7,2.1-4.4,5.4-4.4,8.9v25.5h2.4Z"/>
    <path class="cls-1" d="M493.5,222.7l-77.2-61c-8.4-6.6-20.1-6.7-28.5-.2l-37.3,28.8c6.2-2.1,12.9-2.5,19-.3.7.2,1.3.5,1.9.8,9.9,4.3,15.5,14.8,14.9,25.5-.6,9.8,2.5,10.5,2.5,10.5,7.5,3.2,12.4-4.2,12.4-4.2,2.7-2.9,5.6-5,8.5-6.5,21.9-11.4,47.8,8.7,42.1,32.8-.7,2.8-1.4,4.5-1.4,4.5l14.9,12.9c27.6,25.5,24.1,61.6,24.1,61.6-5.4,12.1-14.2-18.3-14.2-18.3-6.7-18.9-20.1-30.5-20.1-30.5-3.2,8.4,1.3,24.1,1.3,24.1,10,20.3,7,48.3,5.6,57.9h24.6c6.2,0,11.2-5,11.2-11.2v-118.6c0-3.4-1.6-6.7-4.3-8.8Z"/>
  </g>
  <g>
    <circle class="cls-6" cx="356.4" cy="218.4" r="17.6"/>
    <path class="cls-6" d="M468.4,299.4c-3.5-23.6-30.2-37.2-33.4-39.2-3.3-2-.3-5.8-.3-5.8,18.1-17.3-.5-28.1-.5-28.1-15.3-7.5-23.9,4.8-23.9,4.8-11.3,17.8,7.5,24.6,7.5,24.6,6.3,4.8,2.3,5.5,2.3,5.5-1.8.5-4.8,1.5-4.8,1.5-7.5,3.4-14.4,4.3-19.3,4.3-4.3,0-8.4-1.6-11.5-4.7l-4-5.3c-9.7-12.8-26.8-18.1-41.7-12.1-9.8,3.9-16.4,10.1-16.4,10.1l3.8,106.9h123.1c4.5-8.3,2.3-42.5-4.5-54.3-6.8-11.8-4-29.1-.8-29.6,3.3-.5,10.8,8,17.8,16.8,6.8,8.5,6.5,4.5,6.5,4.5ZM390.6,318.6c-12.4-3.4-10.1-43.6-10.1-43.6,6.7,4.4,27.1,4.4,27.1,4.4l2,29.5c-9.7,14.1-19.1,9.7-19.1,9.7Z"/>
  </g>
  <path class="cls-5" d="M487.1,382.1h-153.4c-6.2,0-11.2,5-11.2,11.2v148.5c0,6.2,5,11.2,11.2,11.2h77.7c0-11.1-.3-37.2-1.2-43.3,0,0-6.3.7-11-7.1,0,0-13.4-20.3-17.1-24.2,0,0-16.1,1.5-16.1-10.5,0,0,2.9-2,5.4,2.2s13.7-.7,13.7-.7c0,0,2.7-.5,5.9,4.1,3.2,4.6,10.7,16.6,13.7,16.6,0,0-1.7-42.7,20.7-48.1,0,0,3.4-1.7,2.7-7.1,0,0-12.2-8.1-9.5-23.9,0,0,2.7-13.9,20-14.2,0,0,20.3.5,12.2,27.3,0,0-2.9,8.8-7.6,11,0,0-1,4.6,3.9,8.3,0,0,21.2.2,21.2,32s-2.7,32.7-2.7,32.7l-5.6,2.7,4.2,42.1h22.9c6.2,0,11.2-5,11.2-11.2v-148.5c0-6.2-5-11.2-11.2-11.2ZM371.7,452.2c-11.1,0-20-9-20-20s9-20,20-20,20,9,20,20-9,20-20,20Z"/>
  <g>
    <path class="cls-2" d="M587.1,511.9s-7.6,25.1-9.3,41.1h27.5c.2-12,.3-38.4-1.6-43.8,0,0-9.5,4.9-16.6,2.7Z"/>
    <path class="cls-2" d="M683.8,363.9l-163.6-125.9v303.8c0,6.2,5,11.2,11.2,11.2h31.7c1.8-11.6,5.7-35.8,8.1-42.6h-9.3s-7.1.7.7-15.6c7.8-16.4,10.7-63.9,10.7-63.9,0,0-8.3,28.8-18.1,30.3-9.8,1.5,3.9-19,3.9-19,0,0,8.3-22.9,7.6-57.8,0,0-.7-9.8,17.1-17.1,0,0,5.9-3.2-.2-6.6,0,0-18.5-8.9-4.2-28.1,0,0,11.5-14.3,28.3,1.3,0,0,13.7,15.8-7.7,27.5,0,0-2.9,3.9,1.7,5.9,4.6,2,15.1,4.9,19.5,35.4,4.4,30.5,8.1,41.2,16.1,48.3,8.1,7.1-8.5,7.1-11.7,2-3.2-5.1-12.7-32-12.7-32,0,0,2.9,44.9,20,71.3,17.1,26.4-7.8,17.8-14.4,18.1l.4,42.8h57.9c6.2,0,11.2-5,11.2-11.2v-169c0-3.4-1.6-6.7-4.3-8.8Z"/>
  </g>
</svg>